<svg xmlns="http://www.w3.org/2000/svg" xmlns:xlink="http://www.w3.org/1999/xlink" width="500" zoomAndPan="magnify" viewBox="0 0 375 374.999991" height="500" preserveAspectRatio="xMidYMid meet" version="1.2"><defs><clipPath id="94759057b4"><path d="M 19.746094 20.355469 L 354.246094 20.355469 L 354.246094 354.855469 L 19.746094 354.855469 Z M 19.746094 20.355469 "/></clipPath><clipPath id="3f81bacbf8"><path d="M 187.148438 20.355469 C 94.695312 20.355469 19.746094 95.304688 19.746094 187.757812 C 19.746094 280.210938 94.695312 355.160156 187.148438 355.160156 C 279.601562 355.160156 354.550781 280.210938 354.550781 187.757812 C 354.550781 95.304688 279.601562 20.355469 187.148438 20.355469 Z M 187.148438 20.355469 "/></clipPath><clipPath id="c4e175d5af"><rect x="0" width="232" y="0" height="234"/></clipPath><clipPath id="5672a537aa"><rect x="0" width="321" y="0" height="208"/></clipPath></defs><g id="b3b0353e18"><rect x="0" width="375" y="0" height="374.999991" style="fill:#ffffff;fill-opacity:1;stroke:none;"/><rect x="0" width="375" y="0" height="374.999991" style="fill:#e4e2dd;fill-opacity:1;stroke:none;"/><g clip-rule="nonzero" clip-path="url(#94759057b4)"><g clip-rule="nonzero" clip-path="url(#3f81bacbf8)"><path style="fill:none;stroke-width:8;stroke-linecap:butt;stroke-linejoin:miter;stroke:#661414;stroke-opacity:1;stroke-miterlimit:4;" d="M 223.203968 -0.000376738 C 99.933126 -0.000376738 0.000828249 99.931921 0.000828249 223.202763 C 0.000828249 346.473604 99.933126 446.405903 223.203968 446.405903 C 346.474809 446.405903 446.407108 346.473604 446.407108 223.202763 C 446.407108 99.931921 346.474809 -0.000376738 223.203968 -0.000376738 Z M 223.203968 -0.000376738 " transform="matrix(0.75,0,0,0.75,19.745473,20.355751)"/></g></g><g transform="matrix(1,0,0,1,143,0)"><g clip-path="url(#c4e175d5af)"><path style=" stroke:none;fill-rule:nonzero;fill:#e4e2de;fill-opacity:1;" d="M 12.433594 19.066406 C 12.289062 18.441406 12.207031 17.808594 12.183594 17.164062 C 12.164062 16.523438 12.203125 15.886719 12.308594 15.253906 C 12.410156 14.621094 12.570312 14.003906 12.792969 13.398438 C 13.015625 12.796875 13.289062 12.222656 13.625 11.675781 C 13.957031 11.125 14.339844 10.613281 14.769531 10.140625 C 15.203125 9.664062 15.675781 9.234375 16.191406 8.851562 C 16.703125 8.46875 17.25 8.140625 17.828125 7.863281 C 18.410156 7.585938 19.007812 7.367188 19.628906 7.203125 C 23.15625 6.5 26.703125 5.902344 30.265625 5.414062 C 33.828125 4.929688 37.40625 4.550781 40.992188 4.285156 C 44.578125 4.019531 48.171875 3.859375 51.769531 3.816406 C 55.363281 3.769531 58.960938 3.835938 62.550781 4.007812 C 66.144531 4.183594 69.730469 4.46875 73.304688 4.867188 C 76.878906 5.261719 80.4375 5.769531 83.984375 6.382812 C 87.527344 7 91.046875 7.722656 94.546875 8.554688 C 98.046875 9.386719 101.519531 10.324219 104.960938 11.371094 C 108.402344 12.414062 111.808594 13.566406 115.179688 14.820312 C 118.550781 16.078125 121.878906 17.433594 125.167969 18.894531 C 128.453125 20.355469 131.691406 21.914062 134.882812 23.574219 C 138.074219 25.234375 141.210938 26.988281 144.296875 28.84375 C 147.378906 30.695312 150.402344 32.640625 153.367188 34.679688 C 156.328125 36.71875 159.226562 38.847656 162.058594 41.0625 C 164.890625 43.28125 167.652344 45.582031 170.34375 47.96875 C 173.035156 50.355469 175.648438 52.824219 178.1875 55.371094 C 180.726562 57.921875 183.183594 60.542969 185.5625 63.246094 C 187.941406 65.945312 190.230469 68.714844 192.4375 71.554688 C 194.644531 74.394531 196.761719 77.300781 198.789062 80.269531 C 200.820312 83.242188 202.753906 86.273438 204.59375 89.363281 C 206.4375 92.453125 208.179688 95.597656 209.828125 98.792969 C 211.476562 101.992188 213.023438 105.234375 214.472656 108.527344 C 215.921875 111.820312 217.265625 115.15625 218.507812 118.53125 C 219.753906 121.90625 220.890625 125.316406 221.921875 128.761719 C 222.957031 132.207031 223.882812 135.679688 224.699219 139.183594 C 225.519531 142.6875 226.230469 146.210938 226.832031 149.757812 C 227.433594 153.304688 227.925781 156.863281 228.3125 160.441406 C 228.695312 164.019531 228.964844 167.601562 229.128906 171.195312 C 229.289062 174.789062 229.34375 178.382812 229.28125 181.980469 C 229.222656 185.578125 229.054688 189.167969 228.773438 192.753906 C 228.496094 196.339844 228.105469 199.914062 227.605469 203.476562 C 227.105469 207.039062 226.496094 210.582031 225.777344 214.105469 C 225.613281 214.726562 225.390625 215.328125 225.113281 215.902344 C 224.832031 216.480469 224.5 217.027344 224.113281 217.539062 C 223.730469 218.054688 223.300781 218.523438 222.824219 218.957031 C 222.347656 219.386719 221.835938 219.765625 221.285156 220.097656 C 220.734375 220.425781 220.160156 220.703125 219.554688 220.921875 C 218.953125 221.140625 218.335938 221.300781 217.699219 221.398438 C 217.066406 221.5 216.429688 221.539062 215.789062 221.515625 C 215.148438 221.492188 214.515625 221.40625 213.890625 221.261719 L 194.640625 216.183594 C 193.988281 216.039062 193.355469 215.828125 192.746094 215.554688 C 192.136719 215.28125 191.558594 214.949219 191.015625 214.558594 C 190.472656 214.167969 189.976562 213.726562 189.519531 213.238281 C 189.066406 212.746094 188.664062 212.214844 188.316406 211.644531 C 187.972656 211.070312 187.683594 210.472656 187.457031 209.84375 C 187.230469 209.210938 187.070312 208.566406 186.972656 207.90625 C 186.878906 207.242188 186.847656 206.578125 186.886719 205.910156 C 186.925781 205.242188 187.027344 204.585938 187.199219 203.9375 C 187.699219 201.253906 188.121094 198.554688 188.457031 195.839844 C 188.792969 193.128906 189.050781 190.410156 189.222656 187.683594 C 189.394531 184.953125 189.488281 182.222656 189.496094 179.492188 C 189.503906 176.757812 189.425781 174.027344 189.269531 171.300781 C 189.113281 168.570312 188.871094 165.847656 188.550781 163.136719 C 188.226562 160.421875 187.824219 157.71875 187.339844 155.03125 C 186.851562 152.339844 186.285156 149.667969 185.640625 147.011719 C 184.992188 144.359375 184.265625 141.726562 183.457031 139.113281 C 182.652344 136.503906 181.765625 133.917969 180.804688 131.359375 C 179.839844 128.800781 178.800781 126.277344 177.6875 123.78125 C 176.570312 121.285156 175.378906 118.828125 174.113281 116.40625 C 172.851562 113.980469 171.511719 111.601562 170.105469 109.257812 C 168.695312 106.917969 167.21875 104.621094 165.667969 102.367188 C 164.121094 100.113281 162.507812 97.910156 160.824219 95.757812 C 159.144531 93.601562 157.398438 91.5 155.589844 89.449219 C 153.785156 87.402344 151.914062 85.410156 149.984375 83.472656 C 148.058594 81.535156 146.070312 79.660156 144.027344 77.84375 C 141.984375 76.027344 139.890625 74.277344 137.742188 72.585938 C 135.59375 70.898438 133.394531 69.277344 131.148438 67.71875 C 128.902344 66.164062 126.609375 64.675781 124.273438 63.257812 C 121.9375 61.84375 119.558594 60.496094 117.140625 59.222656 C 114.722656 57.949219 112.269531 56.75 109.777344 55.625 C 107.289062 54.5 104.765625 53.453125 102.210938 52.480469 C 99.65625 51.507812 97.074219 50.613281 94.46875 49.796875 C 91.859375 48.980469 89.230469 48.242188 86.574219 47.585938 C 83.921875 46.929688 81.253906 46.351562 78.566406 45.859375 C 75.878906 45.363281 73.175781 44.949219 70.464844 44.617188 C 67.75 44.285156 65.03125 44.035156 62.304688 43.867188 C 59.574219 43.699219 56.84375 43.613281 54.113281 43.613281 C 51.378906 43.609375 48.648438 43.691406 45.921875 43.855469 C 43.191406 44.015625 40.472656 44.261719 37.757812 44.589844 C 35.046875 44.917969 32.34375 45.328125 29.65625 45.820312 C 29.007812 45.988281 28.351562 46.089844 27.683594 46.125 C 27.015625 46.160156 26.351562 46.128906 25.6875 46.027344 C 25.027344 45.929688 24.382812 45.765625 23.753906 45.539062 C 23.125 45.308594 22.527344 45.019531 21.957031 44.671875 C 21.386719 44.320312 20.855469 43.917969 20.367188 43.464844 C 19.878906 43.007812 19.4375 42.507812 19.050781 41.960938 C 18.664062 41.417969 18.332031 40.839844 18.0625 40.226562 C 17.789062 39.617188 17.582031 38.984375 17.4375 38.332031 Z M 12.433594 19.066406 "/><g style="fill:#661414;fill-opacity:1;"><g transform="translate(24.882943, 32.752296)"><path style="stroke:none" d="M 10.3125 -1.234375 C 8.601562 -1.003906 7.015625 -1.175781 5.546875 -1.75 C 4.078125 -2.320312 2.859375 -3.222656 1.890625 -4.453125 C 0.929688 -5.679688 0.335938 -7.128906 0.109375 -8.796875 C -0.109375 -10.453125 0.078125 -12 0.671875 -13.4375 C 1.273438 -14.882812 2.210938 -16.082031 3.484375 -17.03125 C 4.753906 -17.976562 6.25 -18.570312 7.96875 -18.8125 C 9.25 -18.976562 10.457031 -18.921875 11.59375 -18.640625 C 12.738281 -18.367188 13.75 -17.867188 14.625 -17.140625 L 13.625 -15.828125 C 12.082031 -17.015625 10.285156 -17.46875 8.234375 -17.1875 C 6.867188 -17 5.671875 -16.515625 4.640625 -15.734375 C 3.609375 -14.960938 2.847656 -13.992188 2.359375 -12.828125 C 1.878906 -11.660156 1.726562 -10.398438 1.90625 -9.046875 C 2.09375 -7.703125 2.578125 -6.53125 3.359375 -5.53125 C 4.140625 -4.53125 5.128906 -3.789062 6.328125 -3.3125 C 7.523438 -2.84375 8.804688 -2.703125 10.171875 -2.890625 C 12.242188 -3.171875 13.851562 -4.085938 15 -5.640625 L 16.3125 -4.640625 C 15.664062 -3.722656 14.828125 -2.96875 13.796875 -2.375 C 12.765625 -1.789062 11.601562 -1.410156 10.3125 -1.234375 Z M 10.3125 -1.234375 "/></g></g><g style="fill:#661414;fill-opacity:1;"><g transform="translate(50.659598, 29.869245)"><path style="stroke:none" d="M 10.4375 0.671875 C 8.707031 0.585938 7.160156 0.125 5.796875 -0.71875 C 4.441406 -1.5625 3.40625 -2.671875 2.6875 -4.046875 C 1.96875 -5.429688 1.648438 -6.957031 1.734375 -8.625 C 1.816406 -10.300781 2.28125 -11.789062 3.125 -13.09375 C 3.976562 -14.394531 5.125 -15.394531 6.5625 -16.09375 C 8 -16.800781 9.582031 -17.113281 11.3125 -17.03125 C 13.03125 -16.945312 14.5625 -16.488281 15.90625 -15.65625 C 17.25 -14.820312 18.285156 -13.707031 19.015625 -12.3125 C 19.742188 -10.925781 20.066406 -9.394531 19.984375 -7.71875 C 19.898438 -6.050781 19.425781 -4.5625 18.5625 -3.25 C 17.707031 -1.945312 16.566406 -0.945312 15.140625 -0.25 C 13.722656 0.445312 12.15625 0.753906 10.4375 0.671875 Z M 10.515625 -0.984375 C 11.890625 -0.910156 13.144531 -1.15625 14.28125 -1.71875 C 15.425781 -2.289062 16.335938 -3.109375 17.015625 -4.171875 C 17.703125 -5.242188 18.082031 -6.457031 18.15625 -7.8125 C 18.21875 -9.175781 17.960938 -10.421875 17.390625 -11.546875 C 16.816406 -12.679688 15.988281 -13.585938 14.90625 -14.265625 C 13.820312 -14.941406 12.59375 -15.316406 11.21875 -15.390625 C 9.84375 -15.453125 8.582031 -15.195312 7.4375 -14.625 C 6.300781 -14.0625 5.382812 -13.242188 4.6875 -12.171875 C 3.988281 -11.109375 3.609375 -9.894531 3.546875 -8.53125 C 3.472656 -7.175781 3.726562 -5.929688 4.3125 -4.796875 C 4.90625 -3.671875 5.742188 -2.769531 6.828125 -2.09375 C 7.910156 -1.414062 9.140625 -1.046875 10.515625 -0.984375 Z M 10.515625 -0.984375 "/></g></g><g style="fill:#661414;fill-opacity:1;"><g transform="translate(79.502537, 32.245902)"><path style="stroke:none" d="M 8.109375 -14.375 L 6.5625 -7.703125 L 15.359375 -5.671875 L 15 -4.125 L 6.203125 -6.15625 L 4.546875 1.046875 L 2.75 0.640625 L 6.671875 -16.3125 L 18.328125 -13.625 L 17.96875 -12.09375 Z M 8.109375 -14.375 "/></g></g><g style="fill:#661414;fill-opacity:1;"><g transform="translate(102.667867, 38.275561)"><path style="stroke:none" d="M 10.3125 -12.890625 L 7.734375 -6.546875 L 16.078125 -3.140625 L 15.46875 -1.671875 L 7.125 -5.078125 L 4.328125 1.765625 L 2.625 1.0625 L 9.21875 -15.046875 L 20.28125 -10.515625 L 19.671875 -9.0625 Z M 10.3125 -12.890625 "/></g></g><g style="fill:#661414;fill-opacity:1;"><g transform="translate(124.562853, 47.91053)"><path style="stroke:none" d="M 13.734375 6.59375 L 12.90625 7.953125 L 2.40625 1.484375 L 11.53125 -13.34375 L 21.703125 -7.078125 L 20.875 -5.734375 L 12.28125 -11.03125 L 9.03125 -5.75 L 16.703125 -1.03125 L 15.890625 0.3125 L 8.21875 -4.40625 L 4.8125 1.09375 Z M 13.734375 6.59375 "/></g></g><g style="fill:#661414;fill-opacity:1;"><g transform="translate(145.310789, 61.487931)"><path style="stroke:none" d="M 12.453125 8.78125 L 11.40625 9.984375 L 2.125 1.859375 L 13.59375 -11.234375 L 22.59375 -3.359375 L 21.546875 -2.171875 L 13.9375 -8.828125 L 9.859375 -4.171875 L 16.640625 1.765625 L 15.609375 2.953125 L 8.828125 -2.984375 L 4.5625 1.875 Z M 12.453125 8.78125 "/></g></g><g style="fill:#661414;fill-opacity:1;"><g transform="translate(163.515245, 78.611271)"><path style="stroke:none" d=""/></g></g><g style="fill:#661414;fill-opacity:1;"><g transform="translate(173.148048, 89.982801)"><path style="stroke:none" d="M 8.1875 12.921875 L 8.953125 9.53125 C 6.816406 9.175781 5.085938 7.992188 3.765625 5.984375 C 3.148438 5.046875 2.753906 4.101562 2.578125 3.15625 C 2.398438 2.207031 2.453125 1.335938 2.734375 0.546875 C 3.015625 -0.234375 3.519531 -0.863281 4.25 -1.34375 C 5.113281 -1.914062 6.070312 -2.15625 7.125 -2.0625 C 8.1875 -1.96875 9.535156 -1.503906 11.171875 -0.671875 C 11.441406 -1.835938 11.738281 -2.71875 12.0625 -3.3125 C 12.394531 -3.914062 12.847656 -4.40625 13.421875 -4.78125 C 14.347656 -5.394531 15.3125 -5.550781 16.3125 -5.25 C 17.3125 -4.957031 18.179688 -4.253906 18.921875 -3.140625 C 19.609375 -2.097656 19.898438 -1.109375 19.796875 -0.171875 C 19.691406 0.765625 19.1875 1.535156 18.28125 2.140625 C 17.5625 2.609375 16.753906 2.789062 15.859375 2.6875 C 14.960938 2.59375 13.785156 2.175781 12.328125 1.4375 L 10.828125 8.15625 C 11.910156 8.070312 13.054688 7.773438 14.265625 7.265625 L 14.703125 8.71875 C 13.234375 9.3125 11.832031 9.617188 10.5 9.640625 L 9.734375 13.125 Z M 17.828125 -2.421875 C 17.359375 -3.140625 16.804688 -3.582031 16.171875 -3.75 C 15.546875 -3.914062 14.9375 -3.804688 14.34375 -3.421875 C 13.90625 -3.128906 13.566406 -2.742188 13.328125 -2.265625 C 13.085938 -1.796875 12.851562 -1.015625 12.625 0.078125 C 13.925781 0.722656 14.925781 1.101562 15.625 1.21875 C 16.320312 1.332031 16.921875 1.222656 17.421875 0.890625 C 17.984375 0.515625 18.300781 0.0351562 18.375 -0.546875 C 18.445312 -1.128906 18.265625 -1.753906 17.828125 -2.421875 Z M 5.03125 5.25 C 6.09375 6.863281 7.503906 7.804688 9.265625 8.078125 L 10.890625 0.71875 C 9.472656 0 8.351562 -0.398438 7.53125 -0.484375 C 6.71875 -0.578125 5.988281 -0.410156 5.34375 0.015625 C 4.550781 0.535156 4.128906 1.273438 4.078125 2.234375 C 4.023438 3.203125 4.34375 4.207031 5.03125 5.25 Z M 5.03125 5.25 "/></g></g><g style="fill:#661414;fill-opacity:1;"><g transform="translate(186.159599, 111.320718)"><path style="stroke:none" d=""/></g></g><g style="fill:#661414;fill-opacity:1;"><g transform="translate(192.517302, 124.722927)"><path style="stroke:none" d="M 17.453125 -2.484375 L 19.5625 4.28125 C 20.113281 6.039062 20.25 7.703125 19.96875 9.265625 C 19.695312 10.835938 19.046875 12.1875 18.015625 13.3125 C 16.984375 14.445312 15.660156 15.269531 14.046875 15.78125 C 12.429688 16.28125 10.878906 16.359375 9.390625 16.015625 C 7.910156 15.671875 6.601562 14.929688 5.46875 13.796875 C 4.34375 12.671875 3.503906 11.226562 2.953125 9.46875 L 0.84375 2.703125 Z M 4.4375 8.90625 C 4.894531 10.363281 5.582031 11.546875 6.5 12.453125 C 7.414062 13.367188 8.476562 13.96875 9.6875 14.25 C 10.90625 14.53125 12.179688 14.460938 13.515625 14.046875 C 14.847656 13.628906 15.925781 12.960938 16.75 12.046875 C 17.570312 11.128906 18.101562 10.03125 18.34375 8.75 C 18.59375 7.476562 18.488281 6.113281 18.03125 4.65625 L 16.5 -0.265625 L 2.90625 3.984375 Z M 4.4375 8.90625 "/></g></g><g style="fill:#661414;fill-opacity:1;"><g transform="translate(200.178304, 152.28762)"><path style="stroke:none" d="M 3.4375 14.84375 L 1.859375 15.046875 L 0.34375 2.8125 L 17.625 0.671875 L 19.09375 12.53125 L 17.515625 12.71875 L 16.28125 2.6875 L 10.125 3.453125 L 11.234375 12.390625 L 9.6875 12.59375 L 8.578125 3.65625 L 2.15625 4.4375 Z M 3.4375 14.84375 "/></g></g><g style="fill:#661414;fill-opacity:1;"><g transform="translate(202.498287, 177.010693)"><path style="stroke:none" d="M 17.28125 3.46875 L 17.21875 5.3125 L 1.421875 4.734375 L 1.0625 14.46875 L -0.53125 14.40625 L -0.109375 2.828125 Z M 17.28125 3.46875 "/></g></g><g style="fill:#661414;fill-opacity:1;"><g transform="translate(200.859182, 199.982032)"><path style="stroke:none" d="M 16.6875 5.6875 L 16.375 7.515625 L -0.78125 4.609375 L -0.46875 2.78125 Z M 16.6875 5.6875 "/></g></g></g></g><g transform="matrix(1,0,0,1,18,83)"><g clip-path="url(#5672a537aa)"><g style="fill:#661414;fill-opacity:1;"><g transform="translate(26.226401, 160.639296)"><path style="stroke:none" d="M 4.203125 11.703125 C 3.554688 11.617188 3.046875 11.273438 2.671875 10.671875 C 2.421875 10.265625 2.253906 9.816406 2.171875 9.328125 C 2.097656 8.835938 2.035156 8.328125 1.984375 7.796875 C 1.617188 5.640625 1.390625 3.476562 1.296875 1.3125 C 1.210938 -0.84375 1.335938 -3.003906 1.671875 -5.171875 C 2.441406 -10.410156 2.828125 -15.628906 2.828125 -20.828125 C 2.804688 -23.484375 2.8125 -26.113281 2.84375 -28.71875 C 2.882812 -31.320312 2.972656 -33.957031 3.109375 -36.625 C 3.347656 -42.125 3.507812 -47.601562 3.59375 -53.0625 C 3.675781 -58.53125 3.71875 -64.023438 3.71875 -69.546875 C 3.789062 -69.941406 3.832031 -70.351562 3.84375 -70.78125 C 3.851562 -71.21875 3.851562 -71.628906 3.84375 -72.015625 C 3.757812 -72.691406 3.882812 -73.457031 4.21875 -74.3125 C 4.476562 -74.84375 4.722656 -75.132812 4.953125 -75.1875 C 5.015625 -75.207031 5.046875 -75.21875 5.046875 -75.21875 C 5.046875 -75.21875 5.085938 -75.222656 5.171875 -75.234375 C 5.179688 -75.160156 5.222656 -75.132812 5.296875 -75.15625 C 5.859375 -75.144531 6.226562 -74.890625 6.40625 -74.390625 C 6.675781 -73.910156 6.816406 -73.414062 6.828125 -72.90625 C 6.835938 -72.40625 6.816406 -71.914062 6.765625 -71.4375 C 6.660156 -66.675781 6.5625 -61.910156 6.46875 -57.140625 C 6.375 -52.378906 6.3125 -47.625 6.28125 -42.875 C 6.3125 -42.414062 6.304688 -41.953125 6.265625 -41.484375 C 6.222656 -41.015625 6.171875 -40.570312 6.109375 -40.15625 C 6.023438 -39.195312 6.242188 -38.28125 6.765625 -37.40625 C 7.523438 -40.375 8.5625 -43.570312 9.875 -47 C 11.195312 -50.425781 12.8125 -53.742188 14.71875 -56.953125 C 16.632812 -60.171875 18.828125 -62.953125 21.296875 -65.296875 C 23.765625 -67.640625 26.507812 -69.171875 29.53125 -69.890625 C 31.925781 -70.234375 33.585938 -69.273438 34.515625 -67.015625 C 35.285156 -65.097656 35.632812 -63.160156 35.5625 -61.203125 C 35.53125 -60.035156 35.441406 -58.867188 35.296875 -57.703125 C 35.148438 -56.535156 34.941406 -55.375 34.671875 -54.21875 C 33.046875 -47.382812 30.453125 -41.1875 26.890625 -35.625 C 23.328125 -30.070312 18.957031 -24.972656 13.78125 -20.328125 C 13.644531 -20.210938 13.507812 -20.097656 13.375 -19.984375 C 13.25 -19.867188 13.128906 -19.765625 13.015625 -19.671875 C 12.640625 -19.265625 12.34375 -19.003906 12.125 -18.890625 C 11.9375 -18.765625 11.878906 -18.554688 11.953125 -18.265625 C 12.003906 -18.035156 12.148438 -17.875 12.390625 -17.78125 C 14.117188 -17.414062 15.832031 -17.082031 17.53125 -16.78125 C 19.238281 -16.488281 20.953125 -16.316406 22.671875 -16.265625 C 23.453125 -16.222656 24.203125 -16.242188 24.921875 -16.328125 C 25.640625 -16.421875 26.367188 -16.554688 27.109375 -16.734375 C 29.453125 -17.296875 31.722656 -18.347656 33.921875 -19.890625 C 36.117188 -21.429688 37.992188 -23.164062 39.546875 -25.09375 C 40.390625 -26.15625 41.210938 -27.1875 42.015625 -28.1875 C 42.828125 -29.195312 43.65625 -30.195312 44.5 -31.1875 C 45.363281 -32.164062 46.15625 -33.164062 46.875 -34.1875 C 47.59375 -35.21875 48.335938 -36.253906 49.109375 -37.296875 C 49.285156 -37.492188 49.457031 -37.648438 49.625 -37.765625 C 49.800781 -37.878906 49.914062 -37.984375 49.96875 -38.078125 C 50.039062 -38.097656 50.101562 -38.148438 50.15625 -38.234375 C 50.15625 -38.234375 50.195312 -38.242188 50.28125 -38.265625 C 50.570312 -38.335938 50.875 -38.273438 51.1875 -38.078125 C 51.507812 -37.878906 51.664062 -37.625 51.65625 -37.3125 C 51.78125 -36.8125 51.78125 -36.347656 51.65625 -35.921875 C 51.445312 -35.484375 51.25 -35.082031 51.0625 -34.71875 C 50.882812 -34.363281 50.632812 -34.035156 50.3125 -33.734375 C 48.75 -31.804688 47.1875 -29.878906 45.625 -27.953125 C 44.070312 -26.023438 42.519531 -24.097656 40.96875 -22.171875 C 39.40625 -20.242188 37.40625 -18.519531 34.96875 -17 C 32.53125 -15.488281 30.140625 -14.453125 27.796875 -13.890625 C 25.441406 -13.328125 23.179688 -13.175781 21.015625 -13.4375 C 20.378906 -13.507812 19.738281 -13.585938 19.09375 -13.671875 C 18.457031 -13.753906 17.8125 -13.875 17.15625 -14.03125 C 16.507812 -14.09375 15.867188 -14.164062 15.234375 -14.25 C 14.597656 -14.332031 13.957031 -14.421875 13.3125 -14.515625 C 12.175781 -14.691406 11.023438 -14.875 9.859375 -15.0625 C 8.691406 -15.25 7.535156 -15.285156 6.390625 -15.171875 C 6.035156 -14.691406 5.851562 -14.140625 5.84375 -13.515625 C 5.851562 -13.203125 5.84375 -12.925781 5.8125 -12.6875 C 5.789062 -12.457031 5.78125 -12.1875 5.78125 -11.875 L 6.09375 5.53125 C 6.144531 6.375 6.164062 7.179688 6.15625 7.953125 C 6.15625 8.734375 6.019531 9.550781 5.75 10.40625 C 5.519531 11.070312 5.003906 11.503906 4.203125 11.703125 Z M 7.296875 -19.578125 L 7.640625 -19.65625 C 10.316406 -21.15625 12.820312 -23.097656 15.15625 -25.484375 C 17.5 -27.878906 19.640625 -30.472656 21.578125 -33.265625 C 23.515625 -36.054688 25.21875 -38.753906 26.6875 -41.359375 C 27.726562 -43.160156 28.753906 -45.445312 29.765625 -48.21875 C 30.773438 -50.988281 31.578125 -53.800781 32.171875 -56.65625 C 32.765625 -59.519531 32.847656 -61.988281 32.421875 -64.0625 L 32.265625 -64.71875 C 31.953125 -65.726562 31.53125 -66.363281 31 -66.625 C 30.476562 -66.894531 29.695312 -66.90625 28.65625 -66.65625 C 27.925781 -66.488281 27.257812 -66.195312 26.65625 -65.78125 C 26.0625 -65.363281 25.46875 -64.929688 24.875 -64.484375 C 21.976562 -62.304688 19.472656 -59.445312 17.359375 -55.90625 C 15.253906 -52.375 13.46875 -48.546875 12 -44.421875 C 10.539062 -40.296875 9.363281 -36.144531 8.46875 -31.96875 C 7.570312 -27.800781 6.890625 -23.953125 6.421875 -20.421875 C 6.335938 -20.085938 6.40625 -19.847656 6.625 -19.703125 C 6.851562 -19.566406 7.078125 -19.523438 7.296875 -19.578125 Z M 7.296875 -19.578125 "/></g></g><g style="fill:#661414;fill-opacity:1;"><g transform="translate(78.019555, 148.227566)"><path style="stroke:none" d="M 4.078125 -5.875 C 1.066406 -5.15625 -1.132812 -6.0625 -2.53125 -8.59375 C -2.894531 -9.132812 -3.226562 -9.71875 -3.53125 -10.34375 C -3.84375 -10.96875 -4.03125 -11.582031 -4.09375 -12.1875 C -4.394531 -13.125 -4.550781 -14.019531 -4.5625 -14.875 C -4.570312 -15.726562 -4.5625 -16.582031 -4.53125 -17.4375 C -4.28125 -19.351562 -3.828125 -21.457031 -3.171875 -23.75 C -2.523438 -26.039062 -1.597656 -28.148438 -0.390625 -30.078125 C 0.816406 -32.003906 2.34375 -33.34375 4.1875 -34.09375 C 4.40625 -34.144531 4.539062 -34.21875 4.59375 -34.3125 C 4.664062 -34.332031 4.738281 -34.347656 4.8125 -34.359375 C 4.882812 -34.378906 4.957031 -34.398438 5.03125 -34.421875 C 6.132812 -34.679688 7.085938 -34.519531 7.890625 -33.9375 C 8.691406 -33.351562 9.171875 -32.421875 9.328125 -31.140625 C 9.453125 -29.304688 9.023438 -27.28125 8.046875 -25.0625 C 7.066406 -22.84375 5.769531 -20.859375 4.15625 -19.109375 C 2.550781 -17.367188 0.894531 -16.175781 -0.8125 -15.53125 C -1.289062 -15.269531 -1.503906 -14.875 -1.453125 -14.34375 C -1.472656 -13.09375 -1.054688 -11.832031 -0.203125 -10.5625 C 0.316406 -9.363281 0.914062 -8.726562 1.59375 -8.65625 C 2.269531 -8.582031 3.125 -8.664062 4.15625 -8.90625 C 6.25 -9.882812 8.273438 -11.398438 10.234375 -13.453125 C 12.191406 -15.515625 13.800781 -17.476562 15.0625 -19.34375 C 15.570312 -20.082031 16.082031 -20.863281 16.59375 -21.6875 C 17.101562 -22.507812 17.613281 -23.296875 18.125 -24.046875 C 18.570312 -24.773438 19.050781 -25.53125 19.5625 -26.3125 C 20.082031 -27.09375 20.601562 -27.859375 21.125 -28.609375 C 21.226562 -28.785156 21.367188 -28.988281 21.546875 -29.21875 C 21.722656 -29.457031 21.863281 -29.671875 21.96875 -29.859375 C 22.09375 -30.035156 22.222656 -30.234375 22.359375 -30.453125 C 22.503906 -30.679688 22.628906 -30.894531 22.734375 -31.09375 C 23.046875 -31.394531 23.316406 -31.570312 23.546875 -31.625 C 23.835938 -31.695312 24.117188 -31.648438 24.390625 -31.484375 C 25.109375 -31.109375 25.347656 -30.582031 25.109375 -29.90625 C 25.097656 -29.675781 24.890625 -29.242188 24.484375 -28.609375 C 23.503906 -26.890625 22.253906 -24.832031 20.734375 -22.4375 C 19.210938 -20.050781 17.523438 -17.6875 15.671875 -15.34375 C 13.816406 -13 11.894531 -10.953125 9.90625 -9.203125 C 7.925781 -7.453125 5.984375 -6.34375 4.078125 -5.875 Z M -0.171875 -19.1875 C 0.660156 -19.9375 1.628906 -20.988281 2.734375 -22.34375 C 3.847656 -23.695312 4.796875 -25.101562 5.578125 -26.5625 C 6.359375 -28.03125 6.609375 -29.351562 6.328125 -30.53125 C 6.066406 -31.25 5.660156 -31.460938 5.109375 -31.171875 C 3.972656 -30.742188 2.945312 -29.835938 2.03125 -28.453125 C 1.125 -27.066406 0.398438 -25.570312 -0.140625 -23.96875 C -0.691406 -22.363281 -1.046875 -20.921875 -1.203125 -19.640625 C -1.117188 -19.273438 -1.003906 -19.109375 -0.859375 -19.140625 C -0.453125 -19.078125 -0.222656 -19.09375 -0.171875 -19.1875 Z M -0.171875 -19.1875 "/></g></g><g style="fill:#661414;fill-opacity:1;"><g transform="translate(103.144744, 142.206556)"><path style="stroke:none" d="M 21.953125 11.875 C 21.441406 12 20.867188 11.628906 20.234375 10.765625 C 19.609375 9.910156 19.039062 8.820312 18.53125 7.5 C 18.019531 6.1875 17.554688 4.921875 17.140625 3.703125 C 16.734375 2.484375 16.46875 1.613281 16.34375 1.09375 C 15.144531 -3.28125 14.265625 -7.691406 13.703125 -12.140625 C 13.140625 -16.585938 12.816406 -21.09375 12.734375 -25.65625 C 12.742188 -27.207031 12.757812 -28.765625 12.78125 -30.328125 C 12.800781 -31.890625 12.816406 -33.453125 12.828125 -35.015625 C 12.878906 -35.410156 12.894531 -35.816406 12.875 -36.234375 C 12.851562 -36.660156 12.71875 -37.078125 12.46875 -37.484375 L 12.484375 -37.375 C 11.910156 -36.851562 11.53125 -36.332031 11.34375 -35.8125 C 11.269531 -35.488281 11.148438 -35.164062 10.984375 -34.84375 C 10.828125 -34.53125 10.710938 -34.210938 10.640625 -33.890625 C 9.253906 -30.304688 7.75 -26.785156 6.125 -23.328125 C 4.507812 -19.867188 2.691406 -16.5 0.671875 -13.21875 C 0.378906 -12.820312 0.0976562 -12.476562 -0.171875 -12.1875 C -0.453125 -11.894531 -0.800781 -11.617188 -1.21875 -11.359375 C -1.875 -11.203125 -2.46875 -11.195312 -3 -11.34375 C -3.539062 -11.488281 -3.941406 -11.921875 -4.203125 -12.640625 C -4.515625 -13.953125 -4.492188 -15.738281 -4.140625 -18 C -3.796875 -20.269531 -3.304688 -22.523438 -2.671875 -24.765625 C -2.046875 -27.015625 -1.53125 -28.769531 -1.125 -30.03125 C -0.738281 -30.976562 -0.0546875 -32.148438 0.921875 -33.546875 C 1.910156 -34.953125 2.882812 -35.769531 3.84375 -36 C 4.875 -36.25 6 -35.625 7.21875 -34.125 C 7.550781 -34.363281 7.785156 -34.65625 7.921875 -35 C 8.066406 -35.34375 8.179688 -35.679688 8.265625 -36.015625 L 11.0625 -43.328125 C 11.90625 -45.628906 12.644531 -47.960938 13.28125 -50.328125 C 13.914062 -52.691406 14.359375 -55.144531 14.609375 -57.6875 C 14.890625 -62.03125 15.648438 -66.140625 16.890625 -70.015625 C 17.046875 -70.671875 17.222656 -71.332031 17.421875 -72 C 17.617188 -72.675781 17.960938 -73.265625 18.453125 -73.765625 C 18.671875 -74.128906 19 -74.363281 19.4375 -74.46875 C 20.019531 -74.601562 20.441406 -74.546875 20.703125 -74.296875 C 20.960938 -74.054688 21.238281 -73.660156 21.53125 -73.109375 C 21.664062 -72.515625 21.695312 -71.957031 21.625 -71.4375 C 21.5625 -70.925781 21.484375 -70.382812 21.390625 -69.8125 C 21.160156 -67.820312 20.828125 -65.859375 20.390625 -63.921875 C 19.960938 -61.992188 19.429688 -60.097656 18.796875 -58.234375 C 17.921875 -55.773438 17.242188 -52.753906 16.765625 -49.171875 C 16.296875 -45.597656 15.96875 -41.847656 15.78125 -37.921875 C 15.601562 -33.992188 15.550781 -30.234375 15.625 -26.640625 C 15.707031 -23.046875 15.867188 -19.957031 16.109375 -17.375 C 16.378906 -14.332031 16.75 -11.332031 17.21875 -8.375 C 17.695312 -5.425781 18.367188 -2.460938 19.234375 0.515625 C 19.640625 1.890625 20.101562 3.253906 20.625 4.609375 C 21.144531 5.972656 21.765625 7.34375 22.484375 8.71875 C 22.742188 9.125 22.875 9.328125 22.875 9.328125 C 23.375 10.441406 23.242188 11.207031 22.484375 11.625 C 22.421875 11.71875 22.242188 11.800781 21.953125 11.875 Z M -0.46875 -16.546875 C 0.738281 -18.929688 1.90625 -21.269531 3.03125 -23.5625 C 4.15625 -25.851562 5.207031 -28.203125 6.1875 -30.609375 C 6.257812 -30.941406 6.378906 -31.242188 6.546875 -31.515625 C 6.710938 -31.785156 6.84375 -32.050781 6.9375 -32.3125 C 7.125 -32.820312 7.226562 -33.390625 7.25 -34.015625 C 7 -34.035156 6.539062 -33.96875 5.875 -33.8125 C 4.78125 -33.550781 3.898438 -33.007812 3.234375 -32.1875 C 2.578125 -31.363281 2 -30.390625 1.5 -29.265625 C 1.4375 -29.179688 1.378906 -29.085938 1.328125 -28.984375 C 1.273438 -28.890625 1.226562 -28.765625 1.1875 -28.609375 C 0.582031 -26.910156 0.109375 -25.238281 -0.234375 -23.59375 C -0.578125 -21.945312 -0.863281 -20.289062 -1.09375 -18.625 C -1.238281 -17.957031 -1.03125 -17.265625 -0.46875 -16.546875 Z M -0.46875 -16.546875 "/></g></g><g style="fill:#661414;fill-opacity:1;"><g transform="translate(134.551246, 134.68029)"><path style="stroke:none" d="M 18.765625 7.28125 C 17.222656 7.65625 15.796875 7.375 14.484375 6.4375 C 13.179688 5.507812 12.515625 4.195312 12.484375 2.5 C 12.335938 0.894531 12.726562 -1.03125 13.65625 -3.28125 C 14.59375 -5.53125 15.820312 -7.941406 17.34375 -10.515625 C 18.863281 -13.085938 20.492188 -15.613281 22.234375 -18.09375 C 23.972656 -20.570312 25.644531 -22.832031 27.25 -24.875 C 28.863281 -26.925781 30.175781 -28.585938 31.1875 -29.859375 C 31.394531 -29.972656 31.679688 -30.234375 32.046875 -30.640625 C 32.273438 -31.003906 32.484375 -31.285156 32.671875 -31.484375 C 33.492188 -32.535156 33.898438 -33.410156 33.890625 -34.109375 C 33.878906 -34.816406 33.410156 -35.640625 32.484375 -36.578125 C 31.015625 -37.847656 29.300781 -38.367188 27.34375 -38.140625 C 25.570312 -37.710938 24 -37.195312 22.625 -36.59375 C 21.257812 -35.988281 19.859375 -35.128906 18.421875 -34.015625 C 18.210938 -33.878906 18.015625 -33.726562 17.828125 -33.5625 C 17.640625 -33.40625 17.488281 -33.238281 17.375 -33.0625 C 17.175781 -32.863281 16.976562 -32.679688 16.78125 -32.515625 C 16.59375 -32.359375 16.410156 -32.179688 16.234375 -31.984375 C 16.097656 -31.867188 15.96875 -31.753906 15.84375 -31.640625 C 15.71875 -31.523438 15.585938 -31.421875 15.453125 -31.328125 C 15.210938 -31.023438 14.910156 -30.832031 14.546875 -30.75 C 14.109375 -30.644531 13.703125 -30.703125 13.328125 -30.921875 C 12.578125 -31.453125 12.734375 -32.582031 13.796875 -34.3125 C 13.921875 -34.488281 14.066406 -34.710938 14.234375 -34.984375 C 14.398438 -35.265625 14.570312 -35.503906 14.75 -35.703125 C 14.9375 -35.898438 15.117188 -36.113281 15.296875 -36.34375 C 15.472656 -36.582031 15.617188 -36.796875 15.734375 -36.984375 C 18.242188 -40.460938 20.582031 -43.921875 22.75 -47.359375 C 24.914062 -50.796875 26.691406 -54.40625 28.078125 -58.1875 C 29.460938 -61.96875 30.175781 -66.046875 30.21875 -70.421875 C 30.207031 -71.109375 30.140625 -71.785156 30.015625 -72.453125 C 29.890625 -73.128906 29.441406 -73.609375 28.671875 -73.890625 C 28.328125 -74.046875 27.9375 -74.070312 27.5 -73.96875 C 27.125 -73.875 26.78125 -73.671875 26.46875 -73.359375 C 25.957031 -72.921875 25.597656 -72.640625 25.390625 -72.515625 C 23.441406 -70.960938 21.585938 -68.65625 19.828125 -65.59375 C 18.128906 -62.613281 16.535156 -59.273438 15.046875 -55.578125 C 13.566406 -51.878906 12.203125 -47.941406 10.953125 -43.765625 C 10.367188 -41.671875 9.789062 -39.609375 9.21875 -37.578125 C 8.65625 -35.546875 8.113281 -33.535156 7.59375 -31.546875 C 6.625 -27.503906 5.785156 -23.707031 5.078125 -20.15625 C 4.378906 -16.601562 3.8125 -13.613281 3.375 -11.1875 C 3.320312 -10.78125 3.25 -10.351562 3.15625 -9.90625 C 3.0625 -9.457031 2.988281 -9.03125 2.9375 -8.625 C 2.78125 -7.65625 2.507812 -6.847656 2.125 -6.203125 C 1.90625 -5.535156 1.5 -5.132812 0.90625 -5 C 0.832031 -4.976562 0.75 -5 0.65625 -5.0625 C 0.582031 -5.039062 0.546875 -5.03125 0.546875 -5.03125 C 0.546875 -5.03125 0.507812 -5.023438 0.4375 -5.015625 C -0.351562 -5.046875 -0.921875 -5.484375 -1.265625 -6.328125 C -1.742188 -7.617188 -2.125 -8.929688 -2.40625 -10.265625 C -2.6875 -11.597656 -2.898438 -12.90625 -3.046875 -14.1875 C -3.796875 -20.21875 -4.195312 -26.195312 -4.25 -32.125 C -4.3125 -38.0625 -4.035156 -43.941406 -3.421875 -49.765625 C -3.210938 -51.835938 -3.039062 -53.878906 -2.90625 -55.890625 C -2.769531 -57.910156 -2.632812 -59.941406 -2.5 -61.984375 C -2.457031 -62.148438 -2.425781 -62.347656 -2.40625 -62.578125 C -2.382812 -62.816406 -2.363281 -63.0625 -2.34375 -63.3125 C -2.3125 -63.476562 -2.300781 -63.671875 -2.3125 -63.890625 C -2.332031 -64.117188 -2.320312 -64.320312 -2.28125 -64.5 C -2.28125 -65.113281 -2.140625 -65.492188 -1.859375 -65.640625 C -1.585938 -65.785156 -1.265625 -65.898438 -0.890625 -65.984375 C -0.148438 -65.847656 0.285156 -65.332031 0.421875 -64.4375 C 0.410156 -64.125 0.421875 -63.816406 0.453125 -63.515625 C 0.484375 -63.210938 0.5 -62.90625 0.5 -62.59375 C 0.5625 -62.050781 0.519531 -61.414062 0.375 -60.6875 L -0.546875 -48.484375 C -1.679688 -37.003906 -1.484375 -25.3125 0.046875 -13.40625 C 0.804688 -13.820312 1.171875 -14.257812 1.140625 -14.71875 C 1.171875 -14.882812 1.195312 -15.085938 1.21875 -15.328125 C 1.238281 -15.578125 1.265625 -15.773438 1.296875 -15.921875 C 1.554688 -17.148438 1.847656 -18.539062 2.171875 -20.09375 C 2.503906 -21.65625 2.867188 -23.375 3.265625 -25.25 C 4.140625 -29.039062 5.140625 -33.128906 6.265625 -37.515625 C 7.390625 -41.910156 8.710938 -46.304688 10.234375 -50.703125 C 10.941406 -52.898438 11.695312 -55.003906 12.5 -57.015625 C 13.300781 -59.035156 14.132812 -61 15 -62.90625 C 16.757812 -66.601562 18.648438 -69.71875 20.671875 -72.25 C 22.703125 -74.789062 24.820312 -76.328125 27.03125 -76.859375 C 29.53125 -77.460938 31.269531 -76.6875 32.25 -74.53125 C 32.8125 -73.5 33.09375 -72.160156 33.09375 -70.515625 C 33.082031 -66.003906 32.335938 -61.648438 30.859375 -57.453125 C 29.390625 -53.253906 27.476562 -49.238281 25.125 -45.40625 L 22.921875 -41.96875 C 22.828125 -41.71875 22.6875 -41.488281 22.5 -41.28125 C 22.269531 -40.988281 22.269531 -40.679688 22.5 -40.359375 C 22.695312 -40.171875 22.945312 -40.113281 23.25 -40.1875 L 23.890625 -40.34375 C 24.578125 -40.425781 25.242188 -40.582031 25.890625 -40.8125 C 26.253906 -40.90625 26.601562 -40.972656 26.9375 -41.015625 C 27.28125 -41.054688 27.601562 -41.078125 27.90625 -41.078125 C 30.09375 -41.367188 32.160156 -40.695312 34.109375 -39.0625 C 34.210938 -38.925781 34.335938 -38.796875 34.484375 -38.671875 C 34.640625 -38.554688 34.769531 -38.4375 34.875 -38.3125 C 34.976562 -38.1875 35.09375 -38.035156 35.21875 -37.859375 C 35.34375 -37.691406 35.457031 -37.546875 35.5625 -37.421875 C 35.832031 -37.253906 36.019531 -37.101562 36.125 -36.96875 C 36.21875 -36.914062 36.273438 -36.832031 36.296875 -36.71875 C 36.328125 -36.613281 36.390625 -36.53125 36.484375 -36.46875 C 36.859375 -35.550781 37.132812 -34.800781 37.3125 -34.21875 C 37.488281 -33.644531 37.582031 -33.164062 37.59375 -32.78125 C 37.613281 -32.40625 37.609375 -32.035156 37.578125 -31.671875 C 37.546875 -31.304688 37.5 -30.925781 37.4375 -30.53125 C 36.625 -20.3125 33.59375 -10.765625 28.34375 -1.890625 C 27.4375 -0.117188 26.164062 1.640625 24.53125 3.390625 C 22.894531 5.148438 21.15625 6.40625 19.3125 7.15625 Z M 18.15625 4.28125 C 18.738281 4.132812 19.25 3.910156 19.6875 3.609375 C 20.125 3.316406 20.570312 3 21.03125 2.65625 C 23.425781 0.363281 25.492188 -2.425781 27.234375 -5.71875 C 28.972656 -9.007812 30.394531 -12.476562 31.5 -16.125 C 32.613281 -19.769531 33.5 -23.144531 34.15625 -26.25 C 34.164062 -26.476562 34.164062 -26.707031 34.15625 -26.9375 C 34.144531 -27.175781 34.03125 -27.425781 33.8125 -27.6875 C 33.351562 -27.65625 33.035156 -27.5 32.859375 -27.21875 C 32.585938 -26.769531 32.347656 -26.484375 32.140625 -26.359375 C 31.523438 -25.660156 30.613281 -24.503906 29.40625 -22.890625 C 28.207031 -21.285156 26.953125 -19.546875 25.640625 -17.671875 C 24.335938 -15.804688 23.179688 -14.097656 22.171875 -12.546875 C 21.222656 -10.984375 20.179688 -9.234375 19.046875 -7.296875 C 17.921875 -5.367188 17.003906 -3.519531 16.296875 -1.75 C 15.597656 0.0078125 15.332031 1.410156 15.5 2.453125 C 15.519531 3.160156 15.800781 3.679688 16.34375 4.015625 C 16.882812 4.347656 17.488281 4.4375 18.15625 4.28125 Z M 18.15625 4.28125 "/></g></g><g style="fill:#661414;fill-opacity:1;"><g transform="translate(184.691414, 122.664681)"><path style="stroke:none" d="M 0.125 1.953125 C 0.0507812 1.972656 0 1.984375 -0.03125 1.984375 C -0.0703125 1.992188 -0.132812 2.007812 -0.21875 2.03125 C -0.238281 1.957031 -0.316406 1.941406 -0.453125 1.984375 C -1.242188 1.929688 -1.816406 1.484375 -2.171875 0.640625 C -2.222656 0.410156 -2.273438 0.191406 -2.328125 -0.015625 C -2.390625 -0.234375 -2.488281 -0.488281 -2.625 -0.78125 C -2.675781 -1 -2.726562 -1.21875 -2.78125 -1.4375 C -2.832031 -1.65625 -2.859375 -1.914062 -2.859375 -2.21875 C -3.304688 -7.320312 -3.269531 -12.035156 -2.75 -16.359375 C -2.226562 -20.679688 -1.539062 -25.273438 -0.6875 -30.140625 C -0.613281 -30.460938 -0.53125 -30.769531 -0.4375 -31.0625 C -0.351562 -31.363281 -0.269531 -31.640625 -0.1875 -31.890625 C -0.0078125 -32.160156 0.296875 -32.351562 0.734375 -32.46875 L 1.0625 -32.53125 C 1.695312 -32.457031 2.039062 -32.15625 2.09375 -31.625 C 2.25 -30.957031 2.257812 -30.101562 2.125 -29.0625 C 1.945312 -27.851562 1.75 -26.640625 1.53125 -25.421875 C 1.320312 -24.210938 1.09375 -22.992188 0.84375 -21.765625 C 0.519531 -19.898438 0.265625 -18.050781 0.078125 -16.21875 C -0.0976562 -14.382812 -0.207031 -12.570312 -0.25 -10.78125 C -0.257812 -10.164062 -0.25 -9.546875 -0.21875 -8.921875 C -0.1875 -8.304688 0.046875 -7.738281 0.484375 -7.21875 L 0.375 -7.203125 L 0.515625 -7.109375 L 2.71875 -16.84375 C 3.195312 -18.75 3.890625 -20.722656 4.796875 -22.765625 C 5.710938 -24.804688 6.890625 -26.546875 8.328125 -27.984375 C 8.710938 -28.304688 9.128906 -28.519531 9.578125 -28.625 C 10.453125 -28.84375 11.253906 -28.570312 11.984375 -27.8125 C 12.171875 -27.707031 12.34375 -27.554688 12.5 -27.359375 C 12.664062 -27.160156 12.8125 -26.960938 12.9375 -26.765625 C 13.113281 -26.335938 13.398438 -25.941406 13.796875 -25.578125 C 14.929688 -24.441406 15.976562 -23.988281 16.9375 -24.21875 C 17.59375 -24.375 18.328125 -24.859375 19.140625 -25.671875 C 19.953125 -26.492188 20.765625 -27.390625 21.578125 -28.359375 C 22.398438 -29.328125 23.039062 -30.144531 23.5 -30.8125 C 23.84375 -31.351562 24.234375 -31.832031 24.671875 -32.25 C 24.722656 -32.351562 24.863281 -32.429688 25.09375 -32.484375 C 25.382812 -32.554688 25.703125 -32.507812 26.046875 -32.34375 C 26.597656 -32 26.8125 -31.585938 26.6875 -31.109375 C 26.53125 -30.441406 26.316406 -29.882812 26.046875 -29.4375 C 25.546875 -28.613281 24.816406 -27.601562 23.859375 -26.40625 C 22.898438 -25.207031 21.875 -24.125 20.78125 -23.15625 C 19.695312 -22.195312 18.644531 -21.597656 17.625 -21.359375 C 15.78125 -20.910156 14.070312 -21.351562 12.5 -22.6875 C 12.3125 -22.882812 12.113281 -23.070312 11.90625 -23.25 C 11.707031 -23.425781 11.507812 -23.613281 11.3125 -23.8125 C 11.1875 -24.007812 11.023438 -24.195312 10.828125 -24.375 C 10.628906 -24.5625 10.425781 -24.75 10.21875 -24.9375 C 9.71875 -24.8125 9.363281 -24.609375 9.15625 -24.328125 C 8.945312 -24.046875 8.769531 -23.726562 8.625 -23.375 C 7.820312 -22.101562 7.164062 -20.765625 6.65625 -19.359375 C 6.144531 -17.960938 5.710938 -16.554688 5.359375 -15.140625 C 5.117188 -14.160156 4.882812 -13.175781 4.65625 -12.1875 C 4.425781 -11.195312 4.234375 -10.21875 4.078125 -9.25 C 3.835938 -8.257812 3.601562 -7.269531 3.375 -6.28125 C 3.15625 -5.300781 2.898438 -4.273438 2.609375 -3.203125 C 2.453125 -2.535156 2.273438 -1.882812 2.078125 -1.25 C 1.890625 -0.625 1.679688 0.0195312 1.453125 0.6875 C 1.234375 1.375 0.789062 1.796875 0.125 1.953125 Z M 0.125 1.953125 "/></g></g><g style="fill:#661414;fill-opacity:1;"><g transform="translate(211.579767, 116.221146)"><path style="stroke:none" d="M 3.78125 -5.109375 C 1.726562 -4.609375 0.0390625 -5.332031 -1.28125 -7.28125 C -1.644531 -7.8125 -1.914062 -8.382812 -2.09375 -9 C -2.28125 -9.613281 -2.472656 -10.328125 -2.671875 -11.140625 C -2.765625 -12.816406 -2.894531 -14.820312 -3.0625 -17.15625 C -3.226562 -19.488281 -3.238281 -21.738281 -3.09375 -23.90625 C -2.957031 -26.070312 -2.53125 -27.75 -1.8125 -28.9375 C -1.5 -29.25 -1.226562 -29.429688 -1 -29.484375 C -0.9375 -29.492188 -0.664062 -29.476562 -0.1875 -29.4375 C 0.394531 -29.34375 0.675781 -28.984375 0.65625 -28.359375 C 0.289062 -25.703125 0.0625 -22.945312 -0.03125 -20.09375 C -0.125 -17.238281 -0.046875 -14.484375 0.203125 -11.828125 C 0.316406 -10.992188 0.613281 -10.050781 1.09375 -9 C 1.394531 -8.457031 1.742188 -8.15625 2.140625 -8.09375 C 2.546875 -8.03125 3.039062 -8.066406 3.625 -8.203125 C 4.394531 -8.554688 5.066406 -8.992188 5.640625 -9.515625 C 6.222656 -10.035156 6.78125 -10.632812 7.3125 -11.3125 C 8.488281 -12.90625 9.59375 -14.523438 10.625 -16.171875 C 11.664062 -17.828125 12.640625 -19.539062 13.546875 -21.3125 C 13.859375 -21.9375 14.171875 -22.554688 14.484375 -23.171875 C 14.796875 -23.796875 15.078125 -24.398438 15.328125 -24.984375 C 15.578125 -25.597656 15.859375 -26.210938 16.171875 -26.828125 C 16.492188 -27.453125 16.8125 -28.078125 17.125 -28.703125 C 17.269531 -29.046875 17.445312 -29.359375 17.65625 -29.640625 C 17.863281 -29.921875 18.085938 -30.207031 18.328125 -30.5 C 18.441406 -30.675781 18.609375 -30.789062 18.828125 -30.84375 C 19.117188 -30.914062 19.40625 -30.867188 19.6875 -30.703125 C 20.1875 -30.515625 20.4375 -30.113281 20.4375 -29.5 C 20.46875 -29.03125 20.34375 -28.570312 20.0625 -28.125 C 18.75 -25.164062 17.363281 -22.269531 15.90625 -19.4375 C 14.457031 -16.601562 12.765625 -13.863281 10.828125 -11.21875 C 10.035156 -10.007812 9.03125 -8.773438 7.8125 -7.515625 C 6.59375 -6.253906 5.25 -5.453125 3.78125 -5.109375 Z M -0.078125 -33.90625 C -1.140625 -33.476562 -1.929688 -34.023438 -2.453125 -35.546875 C -2.765625 -36.859375 -2.257812 -37.671875 -0.9375 -37.984375 C 0.457031 -38.328125 1.332031 -37.921875 1.6875 -36.765625 C 1.820312 -36.171875 1.707031 -35.578125 1.34375 -34.984375 C 0.988281 -34.398438 0.515625 -34.039062 -0.078125 -33.90625 Z M -0.078125 -33.90625 "/></g></g><g style="fill:#661414;fill-opacity:1;"><g transform="translate(232.076629, 111.309271)"><path style="stroke:none" d="M 5.859375 -6.171875 C 2.773438 -5.429688 0.429688 -5.742188 -1.171875 -7.109375 C -2.785156 -8.484375 -3.800781 -10.359375 -4.21875 -12.734375 C -4.3125 -13.097656 -4.367188 -13.414062 -4.390625 -13.6875 C -4.410156 -13.957031 -4.421875 -14.242188 -4.421875 -14.546875 C -4.359375 -17.835938 -3.878906 -20.945312 -2.984375 -23.875 C -2.097656 -26.800781 -0.691406 -29.625 1.234375 -32.34375 C 2.285156 -33.769531 3.507812 -34.648438 4.90625 -34.984375 C 5.9375 -35.222656 7.054688 -35.175781 8.265625 -34.84375 C 9.472656 -34.507812 10.285156 -33.773438 10.703125 -32.640625 C 11.816406 -29.953125 11.695312 -27.203125 10.34375 -24.390625 C 10.257812 -24.140625 10.015625 -23.878906 9.609375 -23.609375 C 9.535156 -23.597656 9.5 -23.59375 9.5 -23.59375 C 9.507812 -23.53125 9.476562 -23.488281 9.40625 -23.46875 C 8.894531 -23.34375 8.585938 -23.5 8.484375 -23.9375 C 8.328125 -24.289062 8.304688 -24.671875 8.421875 -25.078125 C 8.472656 -25.253906 8.507812 -25.441406 8.53125 -25.640625 C 8.5625 -25.847656 8.597656 -26.035156 8.640625 -26.203125 C 8.859375 -26.878906 8.976562 -27.582031 9 -28.3125 C 9.019531 -29.050781 8.875 -29.773438 8.5625 -30.484375 C 8.050781 -31.921875 7.175781 -32.488281 5.9375 -32.1875 C 5.34375 -32.039062 4.804688 -31.738281 4.328125 -31.28125 C 3.859375 -30.820312 3.488281 -30.363281 3.21875 -29.90625 C 0.144531 -25.519531 -1.414062 -20.523438 -1.46875 -14.921875 C -1.582031 -9.847656 0.632812 -7.851562 5.1875 -8.9375 C 5.488281 -9.007812 5.707031 -9.101562 5.84375 -9.21875 C 5.988281 -9.25 6.113281 -9.273438 6.21875 -9.296875 C 6.332031 -9.328125 6.425781 -9.351562 6.5 -9.375 C 8.976562 -10.351562 11.34375 -11.828125 13.59375 -13.796875 C 15.84375 -15.773438 17.828125 -17.710938 19.546875 -19.609375 C 20.328125 -20.566406 21.082031 -21.539062 21.8125 -22.53125 C 22.539062 -23.519531 23.296875 -24.5 24.078125 -25.46875 C 24.867188 -26.425781 25.632812 -27.382812 26.375 -28.34375 C 27.113281 -29.300781 27.875 -30.257812 28.65625 -31.21875 C 28.757812 -31.40625 28.882812 -31.59375 29.03125 -31.78125 C 29.1875 -31.976562 29.316406 -32.164062 29.421875 -32.34375 C 29.546875 -32.53125 29.6875 -32.695312 29.84375 -32.84375 C 30 -33 30.132812 -33.128906 30.25 -33.234375 C 30.664062 -33.492188 30.875 -33.625 30.875 -33.625 C 31.3125 -33.726562 31.679688 -33.625 31.984375 -33.3125 C 32.453125 -32.945312 32.582031 -32.394531 32.375 -31.65625 C 32.351562 -31.488281 32.253906 -31.269531 32.078125 -31 C 32.023438 -30.90625 31.957031 -30.789062 31.875 -30.65625 C 31.789062 -30.519531 31.71875 -30.410156 31.65625 -30.328125 C 29.726562 -27.679688 27.769531 -25.066406 25.78125 -22.484375 C 23.789062 -19.910156 21.648438 -17.421875 19.359375 -15.015625 C 17.429688 -13.003906 15.429688 -11.28125 13.359375 -9.84375 C 11.296875 -8.414062 8.976562 -7.238281 6.40625 -6.3125 Z M 5.859375 -6.171875 "/></g></g><g style="fill:#661414;fill-opacity:1;"><g transform="translate(264.695309, 103.492518)"><path style="stroke:none" d="M 0.953125 7.828125 C 0.0664062 8.035156 -0.472656 7.734375 -0.671875 6.921875 C -0.773438 6.484375 -0.863281 6.019531 -0.9375 5.53125 C -1.019531 5.039062 -1.085938 4.535156 -1.140625 4.015625 L -1.71875 -3.3125 C -1.738281 -4.007812 -1.863281 -4.675781 -2.09375 -5.3125 C -2.320312 -5.957031 -2.550781 -6.601562 -2.78125 -7.25 C -2.9375 -7.925781 -2.859375 -8.566406 -2.546875 -9.171875 C -2.066406 -9.753906 -1.875 -10.421875 -1.96875 -11.171875 C -2.0625 -12.484375 -2.117188 -13.832031 -2.140625 -15.21875 C -2.160156 -16.613281 -2.128906 -17.976562 -2.046875 -19.3125 C -2.054688 -19.625 -2.078125 -19.929688 -2.109375 -20.234375 C -2.148438 -20.546875 -2.34375 -20.773438 -2.6875 -20.921875 C -3.394531 -21.296875 -3.742188 -21.710938 -3.734375 -22.171875 C -3.734375 -22.640625 -3.648438 -23.171875 -3.484375 -23.765625 C -2.554688 -26.066406 -1.898438 -28.429688 -1.515625 -30.859375 C -1.128906 -33.285156 -0.765625 -35.75 -0.421875 -38.25 C -0.398438 -38.476562 -0.257812 -39.421875 0 -41.078125 C 0.257812 -42.734375 0.582031 -44.710938 0.96875 -47.015625 C 1.351562 -49.328125 1.8125 -51.632812 2.34375 -53.9375 C 2.882812 -56.238281 3.445312 -58.179688 4.03125 -59.765625 C 4.625 -61.347656 5.25 -62.21875 5.90625 -62.375 C 6.195312 -62.445312 6.507812 -62.441406 6.84375 -62.359375 C 7.53125 -62.140625 7.875 -61.679688 7.875 -60.984375 C 7.84375 -59.503906 7.648438 -57.632812 7.296875 -55.375 C 6.953125 -53.113281 6.507812 -50.75 5.96875 -48.28125 C 5.4375 -45.820312 4.863281 -43.507812 4.25 -41.34375 C 3.644531 -39.175781 3.128906 -37.378906 2.703125 -35.953125 C 1.785156 -32.941406 1.25 -29.726562 1.09375 -26.3125 C 0.945312 -22.894531 0.851562 -19.628906 0.8125 -16.515625 C 0.8125 -16.210938 0.816406 -15.941406 0.828125 -15.703125 C 0.847656 -15.472656 0.96875 -15.226562 1.1875 -14.96875 C 1.769531 -15.5 2.085938 -15.96875 2.140625 -16.375 C 2.160156 -16.90625 2.285156 -17.359375 2.515625 -17.734375 C 3.242188 -20.171875 4.109375 -22.613281 5.109375 -25.0625 C 6.117188 -27.507812 7.429688 -29.75 9.046875 -31.78125 C 9.367188 -32.082031 9.6875 -32.367188 10 -32.640625 C 10.320312 -32.921875 10.695312 -33.144531 11.125 -33.3125 C 11.84375 -33.5625 12.519531 -33.488281 13.15625 -33.09375 C 13.800781 -32.707031 14.132812 -32.128906 14.15625 -31.359375 C 14.3125 -30.078125 13.984375 -28.445312 13.171875 -26.46875 C 12.367188 -24.488281 11.429688 -22.570312 10.359375 -20.71875 C 9.285156 -18.875 8.378906 -17.390625 7.640625 -16.265625 C 7.117188 -15.523438 6.578125 -14.773438 6.015625 -14.015625 C 5.460938 -13.265625 4.890625 -12.507812 4.296875 -11.75 C 4.117188 -11.476562 4.113281 -11.164062 4.28125 -10.8125 C 4.507812 -10.476562 4.8125 -10.359375 5.1875 -10.453125 C 9.65625 -11.898438 13.613281 -13.695312 17.0625 -15.84375 C 20.507812 -18 23.660156 -21.054688 26.515625 -25.015625 C 26.992188 -25.660156 27.46875 -26.289062 27.9375 -26.90625 C 28.40625 -27.53125 28.835938 -28.160156 29.234375 -28.796875 C 29.691406 -29.453125 30.140625 -30.085938 30.578125 -30.703125 C 31.015625 -31.316406 31.46875 -31.945312 31.9375 -32.59375 C 32.039062 -32.78125 32.164062 -32.96875 32.3125 -33.15625 C 32.457031 -33.34375 32.59375 -33.53125 32.71875 -33.71875 C 32.820312 -33.894531 32.953125 -34.0625 33.109375 -34.21875 C 33.273438 -34.382812 33.421875 -34.515625 33.546875 -34.609375 C 33.597656 -34.691406 33.769531 -34.769531 34.0625 -34.84375 C 34.351562 -34.914062 34.726562 -34.816406 35.1875 -34.546875 C 35.695312 -34.046875 35.84375 -33.613281 35.625 -33.25 C 35.601562 -33.007812 35.398438 -32.570312 35.015625 -31.9375 C 32.378906 -27.957031 29.785156 -24.398438 27.234375 -21.265625 C 24.691406 -18.128906 21.800781 -15.4375 18.5625 -13.1875 C 15.332031 -10.9375 11.363281 -9.128906 6.65625 -7.765625 C 5.332031 -7.441406 4.414062 -7.203125 3.90625 -7.046875 C 3.394531 -6.890625 3.09375 -6.523438 3 -5.953125 C 2.90625 -5.390625 2.753906 -4.382812 2.546875 -2.9375 C 2.535156 -2.382812 2.5 -1.804688 2.4375 -1.203125 C 2.382812 -0.609375 2.359375 -0.00390625 2.359375 0.609375 C 2.335938 1.148438 2.28125 1.722656 2.1875 2.328125 C 2.101562 2.929688 2.054688 3.546875 2.046875 4.171875 L 1.96875 6.765625 C 1.800781 7.347656 1.460938 7.703125 0.953125 7.828125 Z M 5.8125 -18.53125 C 6.375 -19.125 7.113281 -20.171875 8.03125 -21.671875 C 8.957031 -23.179688 9.789062 -24.722656 10.53125 -26.296875 C 11.28125 -27.878906 11.644531 -29.054688 11.625 -29.828125 C 10.695312 -29.441406 9.800781 -28.546875 8.9375 -27.140625 C 8.082031 -25.734375 7.378906 -24.222656 6.828125 -22.609375 C 6.273438 -21.003906 5.9375 -19.644531 5.8125 -18.53125 Z M 5.8125 -18.53125 "/></g></g></g></g></g></svg>